<svg xmlns="http://www.w3.org/2000/svg" width="192" height="192">
  <defs>
    <clipPath id="a">
      <circle cx="96" cy="96" r="96" fill="none"/>
    </clipPath>
  </defs>
  <g clip-path="url(#a)" fill="none">
    <path fill="#f88300" d="M0 0h192v192H0z"/>
    <path d="M1067.067 1124l-2.678-.135-2.599-.395-2.507-.642-2.403-.877-2.285-1.098-2.154-1.307-2.012-1.503-1.854-1.685-1000-1000-1.685-1.854-1.502-2.011-1.307-2.155-1.099-2.285-.877-2.403-.642-2.507-.395-2.599-.135-2.677.119-2.509.348-2.442.567-2.367.775-2.278.971-2.18 1.158-2.071 1.332-1.95 1.497-1.82 1.65-1.677 1.792-1.524 1.923-1.36 2.043-1.185 2.153-.999 2.252-.802 2.338-.594 2.416-.376 2.334-3.71 2.777-3.392 3.182-3.02 3.548-2.594 3.877-2.113 4.166-1.577 4.418-.986L93.2 54l3.023.13 2.936.38 2.84.619 2.736.847 2.621 1.063 2.496 1.268 2.363 1.46 2.218 1.641 2.066 1.811 20.317 20.317.674.404 3.018 2.668 1000 1000 2.471 3.171 1.853 3.603.673 1.942.491 2.022.302 2.095.102 2.159-.467 2.333-8.866-3.733-11.525-11.525-1.542-.142h-3.038l31.038 31.038-56 23.096-18.667-18.667z" fill="#ef6c00"/>
    <path d="M48.575 116.358l-1.685-1.854-1.502-2.011-1.307-2.155-1.099-2.285-.877-2.403-.642-2.507-.395-2.599-.135-2.677.119-2.509.348-2.442.567-2.367.775-2.278.971-2.18 1.158-2.071 1.332-1.95 1.497-1.82 1.65-1.677 1.792-1.524 1.923-1.36 2.043-1.185 2.153-.999 2.252-.802 2.338-.594 2.416-.376 2.334-3.71 2.777-3.392 3.182-3.02 3.548-2.594 3.877-2.113 4.166-1.577 4.418-.986L93.2 54l3.023.13 2.936.38 2.84.619 2.736.847 2.621 1.063 2.496 1.268 2.363 1.46 2.218 1.641 2.066 1.811 20.317 20.317.674.404 3.018 2.668L192 138.1V192h-67.783z" fill="#ef6c00"/>
    <path d="M49.333 97.4c0 9.8 7.934 17.733 17.734 17.733h19.6V124h-19.6c-14.467 0-26.134-11.667-26.134-26.133 0-13.534 10.267-24.734 23.334-26.134C69.867 61.467 80.6 54 93.2 54c16.333 0 29.4 11.2 32.667 25.667C137.533 80.6 146.4 89.933 146.4 101.6c0 .933-.467 1.4-.467 2.333l-8.866-3.733C136.133 93.667 131 88.533 124 88.533h-6.067V86.2c0-13.533-10.733-24.267-24.266-24.267-11.2 0-20.534 7.467-23.334 17.734h-3.266c-9.8 0-17.734 7.933-17.734 17.733zM96 125.54l42-6.207-42-6.253V96l56 23.571-56 23.096z" fill="#fff" fill-rule="evenodd"/>
  </g>
</svg>
